Coordinates
version=1
nRows=12
nColumns=28
inDegrees=yes

Units are S.I. units (second, meters, Newtons, ...)
Angles are in degrees.

endheader
time	pelvis_tilt	pelvis_list	pelvis_rotation	pelvis_tx	pelvis_ty	pelvis_tz	hip_flexion_r	hip_adduction_r	hip_rotation_r	knee_angle_r	ankle_angle_r	subtalar_angle_r	mtp_angle_r	hip_flexion_l	hip_adduction_l	hip_rotation_l	knee_angle_l	socket_flexion	socket_adduction	socket_rotation	socket_tx	socket_ty	socket_tz	foot_flex	lumbar_extension	lumbar_bending	lumbar_rotation
      0.00000000	     -1.05857368	     -6.71399113	     -8.67717136	     -0.88069832	      0.99259230	      0.27480435	    -24.20266386	      9.11060387	      5.22419780	     -3.18390350	     11.41663543	     -8.70274796	      4.69666801	     25.76453261	    -10.29918346	      9.84821977	      1.79944103	      5.99431820	      0.00000000	      0.00000000	      0.00000000	      0.00000000	      0.00000000	     -0.39056584	    -11.17558357	      4.92809303	     10.60039539
      0.00416667	     -1.12155634	     -6.74445421	     -8.60248883	     -0.87517576	      0.99204181	      0.27444034	    -24.31521958	      9.12235617	      5.28478538	     -3.40092088	     11.37225641	     -8.70072452	      4.69272013	     25.61814158	    -10.21420421	      9.85540479	      1.78387083	      5.96289625	      0.00000000	      0.00000000	      0.00000000	      0.00000000	      0.00000000	     -0.46039659	    -11.02907577	      4.96098012	     10.59940054
      0.00833333	     -1.16793149	     -6.78176497	     -8.64438054	     -0.86975115	      0.99163811	      0.27416765	    -24.23544319	      9.09983269	      5.22153467	     -4.03057876	     11.15506935	     -8.80234014	      4.65852660	     25.36869935	    -10.19802015	      9.84268014	      1.93495596	      5.98090459	      0.00000000	      0.00000000	      0.00000000	      0.00000000	      0.00000000	     -0.90742423	    -10.98863222	      4.98760133	     10.56144916
      0.01250000	     -1.23650246	     -6.80900436	     -8.57005410	     -0.86381564	      0.99108540	      0.27376656	    -24.33626893	      9.10762173	      5.28418727	     -4.28797270	     11.10045609	     -8.80383819	      4.65486473	     25.19404973	    -10.10461169	      9.85729691	      1.93424394	      5.96246816	      0.00000000	      0.00000000	      0.00000000	      0.00000000	      0.00000000	     -0.97437996	    -10.82813089	      5.03225898	     10.56346478
      0.01666667	     -1.30750335	     -6.84074483	     -8.63438581	     -0.85804216	      0.99066740	      0.27352740	    -24.17786002	      9.07590383	      5.21146561	     -5.06178189	     10.83403936	     -8.92624941	      4.62164536	     24.90619690	    -10.10047798	      9.87817798	      2.19739240	      6.05620479	      0.00000000	      0.00000000	      0.00000000	      0.00000000	      0.00000000	     -1.43402242	    -10.77445835	      5.04107772	     10.53536341
      0.02083333	     -1.37745887	     -6.86441041	     -8.55319419	     -0.85178263	      0.99016437	      0.27311571	    -24.27619939	      9.07863182	      5.28177239	     -5.33126964	     10.77786964	     -8.92698350	      4.61935738	     24.71176511	    -10.00068805	      9.90032442	      2.19768965	      6.05601426	      0.00000000	      0.00000000	      0.00000000	      0.00000000	      0.00000000	     -1.49072796	    -10.59203093	      5.09038822	     10.54027251
      0.02500000	     -1.29723370	     -6.78390622	     -9.04944439	     -0.84521377	      0.99015050	      0.27373643	    -24.22704395	      8.73830306	      5.32964870	     -6.26827717	     10.46780735	     -8.82903574	      5.17478289	     23.47952647	    -10.17531577	      9.44154072	      4.15727258	      7.16885303	      0.00000000	      0.00000000	      0.00000000	      0.00000000	      0.00000000	     -1.87124104	    -10.62676571	      4.85409325	     11.07141729
      0.02916667	     -1.36305075	     -6.78998271	     -9.00183141	     -0.83894603	      0.98975163	      0.27335436	    -24.17584862	      8.72046641	      5.31578884	     -6.83012083	     10.23696240	     -8.93672063	      5.16121277	     23.23175845	    -10.08540136	      9.52923150	      4.27318691	      7.22848104	      0.00000000	      0.00000000	      0.00000000	      0.00000000	      0.00000000	     -2.16315996	    -10.49641996	      4.85906359	     11.00143599
      0.03333333	     -1.43123843	     -6.79727493	     -8.89322520	     -0.83237380	      0.98937071	      0.27287236	    -24.26463494	      8.71997063	      5.42015947	     -7.12340974	     10.16212871	     -8.93412808	      5.15546560	     23.01844626	     -9.95144282	      9.59097855	      4.25121961	      7.21178681	      0.00000000	      0.00000000	      0.00000000	      0.00000000	      0.00000000	     -2.22082067	    -10.30876148	      4.89355232	     10.99752184
      0.03750000	     -1.61620852	     -6.71378156	     -9.00532251	     -0.82589552	      0.98893177	      0.27284606	    -23.87087136	      8.58737033	      5.28444811	     -8.10357865	      9.63779175	     -9.27416964	      5.21127154	     22.59149367	     -9.91933030	      9.66691650	      5.08408339	      7.70774589	      0.00000000	      0.00000000	      0.00000000	      0.00000000	      0.00000000	     -2.60550754	    -10.05986206	      4.77759851	     10.88781278
      0.04166667	     -1.67016319	     -6.67344670	     -8.97286134	     -0.81944986	      0.98872493	      0.27249200	    -23.79821201	      8.51856105	      5.35469334	     -8.71163422	      9.35539698	     -9.35498224	      5.19792812	     22.29471824	     -9.79931478	      9.77506189	      5.22016735	      7.78589672	      0.00000000	      0.00000000	      0.00000000	      0.00000000	      0.00000000	     -2.88008023	     -9.93542211	      4.71535231	     10.86466106
      0.04583333	     -1.72658965	     -6.60115541	     -8.94159151	     -0.81298313	      0.98856599	      0.27219552	    -23.65854862	      8.42859992	      5.39544068	     -9.42070978	      9.01434903	     -9.48298450	      5.16817195	     21.97725269	     -9.65787425	      9.90387959	      5.40450747	      7.89946888	      0.00000000	      0.00000000	      0.00000000	      0.00000000	      0.00000000	     -3.09956390	     -9.81844290	      4.60190919	     10.82307689
